<svg width="133" height="38" viewBox="0 0 133 38" fill="none" xmlns="http://www.w3.org/2000/svg">
<path d="M22.5059 28.304C20.4286 28.304 18.6299 27.886 17.1099 27.05C15.6153 26.214 14.4626 25.036 13.6519 23.516C12.8413 21.9707 12.4359 20.1593 12.4359 18.082C12.4359 16.0047 12.8539 14.1807 13.6899 12.61C14.5259 11.0393 15.6913 9.81067 17.1859 8.924C18.7059 8.03733 20.4919 7.594 22.5439 7.594C24.0386 7.594 25.3559 7.83467 26.4959 8.316C27.6613 8.79733 28.6493 9.48133 29.4599 10.368C30.2959 11.2547 30.9166 12.306 31.3219 13.522C31.7526 14.738 31.9679 16.068 31.9679 17.512C31.9426 17.892 31.9173 18.272 31.8919 18.652C31.8666 19.0067 31.8033 19.374 31.7019 19.754H18.4019C18.4779 20.3873 18.6679 20.97 18.9719 21.502C19.2759 22.034 19.7066 22.452 20.2639 22.756C20.8213 23.06 21.5306 23.212 22.3919 23.212C22.9999 23.212 23.5446 23.1487 24.0259 23.022C24.5326 22.87 24.9506 22.6673 25.2799 22.414C25.6093 22.1353 25.8246 21.8313 25.9259 21.502H31.8539C31.5246 23.098 30.8913 24.4027 29.9539 25.416C29.0166 26.404 27.9019 27.1387 26.6099 27.62C25.3179 28.076 23.9499 28.304 22.5059 28.304ZM18.5159 15.688H26.2299C26.2299 15.156 26.0906 14.6367 25.8119 14.13C25.5586 13.6233 25.1533 13.218 24.5959 12.914C24.0386 12.5847 23.3166 12.42 22.4299 12.42C21.5686 12.42 20.8466 12.5847 20.2639 12.914C19.6813 13.2433 19.2506 13.6613 18.9719 14.168C18.6933 14.6747 18.5413 15.1813 18.5159 15.688ZM38.2454 28L31.8994 7.974H38.4734L41.8174 20.932L45.4274 7.974H51.9634L55.5734 20.932L58.8794 7.974H65.3014L58.9554 28H52.2674L48.5814 15.346L44.9334 28H38.2454ZM74.9154 37.348C73.37 37.348 71.85 37.1453 70.3554 36.74C68.886 36.3347 67.48 35.676 66.1374 34.764L68.0374 29.9C68.7974 30.4573 69.6714 30.9007 70.6594 31.23C71.6727 31.5593 72.8254 31.724 74.1174 31.724C76.0174 31.724 77.4487 31.3187 78.4114 30.508C79.374 29.6973 79.8554 28.456 79.8554 26.784V26.176C79.4247 26.708 78.8927 27.126 78.2594 27.43C77.626 27.734 76.9674 27.9493 76.2834 28.076C75.5994 28.228 74.9154 28.304 74.2314 28.304C72.306 28.304 70.7607 27.8987 69.5954 27.088C68.43 26.2773 67.5814 25.1627 67.0494 23.744C66.5174 22.3253 66.2514 20.7293 66.2514 18.956V7.974H72.2174V17.778C72.2174 18.3353 72.2554 18.9053 72.3314 19.488C72.4074 20.0707 72.572 20.628 72.8254 21.16C73.0787 21.6667 73.4587 22.0847 73.9654 22.414C74.4974 22.718 75.1814 22.87 76.0174 22.87C77.1574 22.87 77.9934 22.5913 78.5254 22.034C79.0574 21.4767 79.3994 20.7927 79.5514 19.982C79.7034 19.146 79.7794 18.31 79.7794 17.474V7.974H85.8214V24.162C85.8214 26.1127 85.6567 27.886 85.3274 29.482C84.998 31.1033 84.428 32.4967 83.6174 33.662C82.8067 34.8273 81.692 35.7267 80.2734 36.36C78.8547 37.0187 77.0687 37.348 74.9154 37.348ZM88.5591 28V7.974H94.1451L94.4871 10.026C95.0698 9.36733 95.7158 8.86067 96.4251 8.506C97.1598 8.15133 97.8818 7.91067 98.5911 7.784C99.3258 7.65733 99.9591 7.594 100.491 7.594C102.391 7.594 103.873 8.02467 104.937 8.886C106.026 9.722 106.799 10.8493 107.255 12.268C107.711 13.6867 107.939 15.2447 107.939 16.942V28H101.935V17.588C101.935 17.056 101.884 16.5367 101.783 16.03C101.682 15.498 101.504 15.0167 101.251 14.586C101.023 14.13 100.694 13.7753 100.263 13.522C99.8325 13.2433 99.2751 13.104 98.5911 13.104C97.7045 13.104 96.9571 13.3193 96.3491 13.75C95.7411 14.1807 95.2978 14.7633 95.0191 15.498C94.7405 16.2073 94.6011 17.0053 94.6011 17.892V28H88.5591ZM110.575 28V1.096H116.617V15.346H118.897L123.457 7.974H130.221L123.913 17.512L130.715 28H123.761L119.087 20.704H116.617V28H110.575Z" fill="white"/>
<path d="M3.41821 29.7512C3.0208 29.4526 2.73322 28.1102 2.94268 27.5293C3.11704 27.0491 9.0578 23 9.58881 23C10.0655 23 10.6757 23.626 10.8354 24.2787C10.935 24.6814 10.8456 24.9071 10.4131 25.3468C9.74958 26.0226 4.2436 29.9919 3.95941 30C3.84959 30.0023 3.60502 29.8912 3.41821 29.7512Z" fill="#DB1049"/>
<path d="M0.0146166 17.7539C0.0234464 17.6765 0.0241868 17.5985 0.0168257 17.521L0.0147571 17.4993C-0.06086 16.7034 0.578617 16.0215 1.37771 16.046L4.9501 16.1553H8.63639C9.30889 16.1553 9.84453 16.7181 9.81137 17.3897C9.77677 18.0904 9.21672 18.6509 8.51604 18.6859L7.1918 18.7522C5.7851 18.8238 3.59705 18.9354 2.33054 19H1.12656C0.458158 19 -0.0612177 18.4179 0.0146166 17.7539Z" fill="#DB1049"/>
<path d="M8.73195 11.3868C7.62455 10.9267 2.67148 8.10012 2.25778 7.691C1.60191 7.04312 1.83525 5 2.56427 5C3.1041 5 10.5457 9.82738 10.5457 10.1781C10.5457 11.1592 9.64008 11.7636 8.73195 11.3868Z" fill="#DB1049"/>
</svg>
